<?xml version="1.0" encoding="UTF-8" standalone="no"?>
<!DOCTYPE svg PUBLIC "-//W3C//DTD SVG 1.1//EN" "http://www.w3.org/Graphics/SVG/1.1/DTD/svg11.dtd">
<svg width="100%" height="100%" viewBox="0 0 512 512" version="1.1" xmlns="http://www.w3.org/2000/svg" xmlns:xlink="http://www.w3.org/1999/xlink" xml:space="preserve" xmlns:serif="http://www.serif.com/" style="fill-rule:evenodd;clip-rule:evenodd;stroke-linejoin:round;stroke-miterlimit:2;">
    <g transform="matrix(0.072741,0,0,0.072741,256,256)">
        <g transform="matrix(1,0,0,1,-2844.444444,-2844.444444)">
            <g transform="matrix(5.555556,0,0,5.555556,405.555556,961.111111)">
                <path d="M433,0L2,197L153,267L0,337L152,410L2,482L446,678L876,483L725,411L876,337L726,267L878,199L433,0ZM147,196L439,64L731,198L441,331L147,196ZM732,341L438,473L146,338L233,302L439,395L648,301L732,341ZM735,481L438,613L147,479L233,444L435,536L448,535L651,442L735,481Z" style="fill:url(#_Linear1);"/>
            </g>
        </g>
    </g>
    <defs>
        <linearGradient id="_Linear1" x1="0" y1="0" x2="1" y2="0" gradientUnits="userSpaceOnUse" gradientTransform="matrix(664,-616,616,664,180,820)"><stop offset="0" style="stop-color:rgb(243,154,31);stop-opacity:1"/><stop offset="1" style="stop-color:rgb(13,132,216);stop-opacity:1"/></linearGradient>
    </defs>
</svg>
