solid stage2_small_perimeter_fixture
  facet normal 0 0 -1
    outer loop
      vertex 0 0 0
      vertex 4 4 0
      vertex 4 0 0
    endloop
  endfacet
  facet normal 0 0 -1
    outer loop
      vertex 0 0 0
      vertex 0 4 0
      vertex 4 4 0
    endloop
  endfacet
  facet normal 0 0 1
    outer loop
      vertex 0 0 10
      vertex 4 0 10
      vertex 4 4 10
    endloop
  endfacet
  facet normal 0 0 1
    outer loop
      vertex 0 0 10
      vertex 4 4 10
      vertex 0 4 10
    endloop
  endfacet
  facet normal 0 -1 0
    outer loop
      vertex 0 0 0
      vertex 4 0 0
      vertex 4 0 10
    endloop
  endfacet
  facet normal 0 -1 0
    outer loop
      vertex 0 0 0
      vertex 4 0 10
      vertex 0 0 10
    endloop
  endfacet
  facet normal 0 1 0
    outer loop
      vertex 0 4 0
      vertex 0 4 10
      vertex 4 4 10
    endloop
  endfacet
  facet normal 0 1 0
    outer loop
      vertex 0 4 0
      vertex 4 4 10
      vertex 4 4 0
    endloop
  endfacet
  facet normal -1 0 0
    outer loop
      vertex 0 0 0
      vertex 0 0 10
      vertex 0 4 10
    endloop
  endfacet
  facet normal -1 0 0
    outer loop
      vertex 0 0 0
      vertex 0 4 10
      vertex 0 4 0
    endloop
  endfacet
  facet normal 1 0 0
    outer loop
      vertex 4 0 0
      vertex 4 4 10
      vertex 4 0 10
    endloop
  endfacet
  facet normal 1 0 0
    outer loop
      vertex 4 0 0
      vertex 4 4 0
      vertex 4 4 10
    endloop
  endfacet
endsolid stage2_small_perimeter_fixture
