solid stage2_gap_infill_strip_fixture
  facet normal 0 0 -1
    outer loop
      vertex 0 0 0
      vertex 30 2.2 0
      vertex 30 0 0
    endloop
  endfacet
  facet normal 0 0 -1
    outer loop
      vertex 0 0 0
      vertex 0 2.2 0
      vertex 30 2.2 0
    endloop
  endfacet
  facet normal 0 0 1
    outer loop
      vertex 0 0 10
      vertex 30 0 10
      vertex 30 2.2 10
    endloop
  endfacet
  facet normal 0 0 1
    outer loop
      vertex 0 0 10
      vertex 30 2.2 10
      vertex 0 2.2 10
    endloop
  endfacet
  facet normal 0 -1 0
    outer loop
      vertex 0 0 0
      vertex 30 0 0
      vertex 30 0 10
    endloop
  endfacet
  facet normal 0 -1 0
    outer loop
      vertex 0 0 0
      vertex 30 0 10
      vertex 0 0 10
    endloop
  endfacet
  facet normal 0 1 0
    outer loop
      vertex 0 2.2 0
      vertex 0 2.2 10
      vertex 30 2.2 10
    endloop
  endfacet
  facet normal 0 1 0
    outer loop
      vertex 0 2.2 0
      vertex 30 2.2 10
      vertex 30 2.2 0
    endloop
  endfacet
  facet normal -1 0 0
    outer loop
      vertex 0 0 0
      vertex 0 0 10
      vertex 0 2.2 10
    endloop
  endfacet
  facet normal -1 0 0
    outer loop
      vertex 0 0 0
      vertex 0 2.2 10
      vertex 0 2.2 0
    endloop
  endfacet
  facet normal 1 0 0
    outer loop
      vertex 30 0 0
      vertex 30 2.2 10
      vertex 30 0 10
    endloop
  endfacet
  facet normal 1 0 0
    outer loop
      vertex 30 0 0
      vertex 30 2.2 0
      vertex 30 2.2 10
    endloop
  endfacet
endsolid stage2_gap_infill_strip_fixture
