solid stage3_arranged_objects_fixture
  facet normal 0.000000 0.000000 -1.000000
    outer loop
      vertex -30.000000 -16.000000 0.000000
      vertex -6.000000 -4.000000 0.000000
      vertex -6.000000 -16.000000 0.000000
    endloop
  endfacet
  facet normal 0.000000 0.000000 -1.000000
    outer loop
      vertex -30.000000 -16.000000 0.000000
      vertex -30.000000 -4.000000 0.000000
      vertex -6.000000 -4.000000 0.000000
    endloop
  endfacet
  facet normal 0.000000 0.000000 1.000000
    outer loop
      vertex -30.000000 -16.000000 12.000000
      vertex -6.000000 -16.000000 12.000000
      vertex -6.000000 -4.000000 12.000000
    endloop
  endfacet
  facet normal 0.000000 0.000000 1.000000
    outer loop
      vertex -30.000000 -16.000000 12.000000
      vertex -6.000000 -4.000000 12.000000
      vertex -30.000000 -4.000000 12.000000
    endloop
  endfacet
  facet normal 0.000000 -1.000000 0.000000
    outer loop
      vertex -30.000000 -16.000000 0.000000
      vertex -6.000000 -16.000000 0.000000
      vertex -6.000000 -16.000000 12.000000
    endloop
  endfacet
  facet normal 0.000000 -1.000000 0.000000
    outer loop
      vertex -30.000000 -16.000000 0.000000
      vertex -6.000000 -16.000000 12.000000
      vertex -30.000000 -16.000000 12.000000
    endloop
  endfacet
  facet normal 1.000000 0.000000 0.000000
    outer loop
      vertex -6.000000 -16.000000 0.000000
      vertex -6.000000 -4.000000 0.000000
      vertex -6.000000 -4.000000 12.000000
    endloop
  endfacet
  facet normal 1.000000 0.000000 0.000000
    outer loop
      vertex -6.000000 -16.000000 0.000000
      vertex -6.000000 -4.000000 12.000000
      vertex -6.000000 -16.000000 12.000000
    endloop
  endfacet
  facet normal 0.000000 1.000000 0.000000
    outer loop
      vertex -6.000000 -4.000000 0.000000
      vertex -30.000000 -4.000000 0.000000
      vertex -30.000000 -4.000000 12.000000
    endloop
  endfacet
  facet normal 0.000000 1.000000 -0.000000
    outer loop
      vertex -6.000000 -4.000000 0.000000
      vertex -30.000000 -4.000000 12.000000
      vertex -6.000000 -4.000000 12.000000
    endloop
  endfacet
  facet normal -1.000000 0.000000 0.000000
    outer loop
      vertex -30.000000 -4.000000 0.000000
      vertex -30.000000 -16.000000 0.000000
      vertex -30.000000 -16.000000 12.000000
    endloop
  endfacet
  facet normal -1.000000 0.000000 0.000000
    outer loop
      vertex -30.000000 -4.000000 0.000000
      vertex -30.000000 -16.000000 12.000000
      vertex -30.000000 -4.000000 12.000000
    endloop
  endfacet
  facet normal 0.000000 0.000000 -1.000000
    outer loop
      vertex 9.000000 1.000000 0.000000
      vertex 27.000000 19.000000 0.000000
      vertex 27.000000 1.000000 0.000000
    endloop
  endfacet
  facet normal 0.000000 0.000000 -1.000000
    outer loop
      vertex 9.000000 1.000000 0.000000
      vertex 9.000000 19.000000 0.000000
      vertex 27.000000 19.000000 0.000000
    endloop
  endfacet
  facet normal 0.000000 0.000000 1.000000
    outer loop
      vertex 9.000000 1.000000 20.000000
      vertex 27.000000 1.000000 20.000000
      vertex 27.000000 19.000000 20.000000
    endloop
  endfacet
  facet normal 0.000000 0.000000 1.000000
    outer loop
      vertex 9.000000 1.000000 20.000000
      vertex 27.000000 19.000000 20.000000
      vertex 9.000000 19.000000 20.000000
    endloop
  endfacet
  facet normal 0.000000 -1.000000 0.000000
    outer loop
      vertex 9.000000 1.000000 0.000000
      vertex 27.000000 1.000000 0.000000
      vertex 27.000000 1.000000 20.000000
    endloop
  endfacet
  facet normal 0.000000 -1.000000 0.000000
    outer loop
      vertex 9.000000 1.000000 0.000000
      vertex 27.000000 1.000000 20.000000
      vertex 9.000000 1.000000 20.000000
    endloop
  endfacet
  facet normal 1.000000 0.000000 0.000000
    outer loop
      vertex 27.000000 1.000000 0.000000
      vertex 27.000000 19.000000 0.000000
      vertex 27.000000 19.000000 20.000000
    endloop
  endfacet
  facet normal 1.000000 0.000000 0.000000
    outer loop
      vertex 27.000000 1.000000 0.000000
      vertex 27.000000 19.000000 20.000000
      vertex 27.000000 1.000000 20.000000
    endloop
  endfacet
  facet normal 0.000000 1.000000 0.000000
    outer loop
      vertex 27.000000 19.000000 0.000000
      vertex 9.000000 19.000000 0.000000
      vertex 9.000000 19.000000 20.000000
    endloop
  endfacet
  facet normal 0.000000 1.000000 -0.000000
    outer loop
      vertex 27.000000 19.000000 0.000000
      vertex 9.000000 19.000000 20.000000
      vertex 27.000000 19.000000 20.000000
    endloop
  endfacet
  facet normal -1.000000 0.000000 0.000000
    outer loop
      vertex 9.000000 19.000000 0.000000
      vertex 9.000000 1.000000 0.000000
      vertex 9.000000 1.000000 20.000000
    endloop
  endfacet
  facet normal -1.000000 0.000000 0.000000
    outer loop
      vertex 9.000000 19.000000 0.000000
      vertex 9.000000 1.000000 20.000000
      vertex 9.000000 19.000000 20.000000
    endloop
  endfacet
  facet normal 0.000000 0.000000 -1.000000
    outer loop
      vertex 14.000000 6.000000 20.000000
      vertex 22.000000 14.000000 20.000000
      vertex 22.000000 6.000000 20.000000
    endloop
  endfacet
  facet normal 0.000000 0.000000 -1.000000
    outer loop
      vertex 14.000000 6.000000 20.000000
      vertex 14.000000 14.000000 20.000000
      vertex 22.000000 14.000000 20.000000
    endloop
  endfacet
  facet normal 0.000000 0.000000 1.000000
    outer loop
      vertex 14.000000 6.000000 28.000000
      vertex 22.000000 6.000000 28.000000
      vertex 22.000000 14.000000 28.000000
    endloop
  endfacet
  facet normal 0.000000 0.000000 1.000000
    outer loop
      vertex 14.000000 6.000000 28.000000
      vertex 22.000000 14.000000 28.000000
      vertex 14.000000 14.000000 28.000000
    endloop
  endfacet
  facet normal 0.000000 -1.000000 0.000000
    outer loop
      vertex 14.000000 6.000000 20.000000
      vertex 22.000000 6.000000 20.000000
      vertex 22.000000 6.000000 28.000000
    endloop
  endfacet
  facet normal 0.000000 -1.000000 0.000000
    outer loop
      vertex 14.000000 6.000000 20.000000
      vertex 22.000000 6.000000 28.000000
      vertex 14.000000 6.000000 28.000000
    endloop
  endfacet
  facet normal 1.000000 0.000000 0.000000
    outer loop
      vertex 22.000000 6.000000 20.000000
      vertex 22.000000 14.000000 20.000000
      vertex 22.000000 14.000000 28.000000
    endloop
  endfacet
  facet normal 1.000000 0.000000 0.000000
    outer loop
      vertex 22.000000 6.000000 20.000000
      vertex 22.000000 14.000000 28.000000
      vertex 22.000000 6.000000 28.000000
    endloop
  endfacet
  facet normal 0.000000 1.000000 0.000000
    outer loop
      vertex 22.000000 14.000000 20.000000
      vertex 14.000000 14.000000 20.000000
      vertex 14.000000 14.000000 28.000000
    endloop
  endfacet
  facet normal 0.000000 1.000000 -0.000000
    outer loop
      vertex 22.000000 14.000000 20.000000
      vertex 14.000000 14.000000 28.000000
      vertex 22.000000 14.000000 28.000000
    endloop
  endfacet
  facet normal -1.000000 0.000000 0.000000
    outer loop
      vertex 14.000000 14.000000 20.000000
      vertex 14.000000 6.000000 20.000000
      vertex 14.000000 6.000000 28.000000
    endloop
  endfacet
  facet normal -1.000000 0.000000 0.000000
    outer loop
      vertex 14.000000 14.000000 20.000000
      vertex 14.000000 6.000000 28.000000
      vertex 14.000000 14.000000 28.000000
    endloop
  endfacet
endsolid stage3_arranged_objects_fixture
