solid stage2_small_perimeter_array_fixture
  facet normal 0 0 -1
    outer loop
      vertex 0 0 0
      vertex 12 12 0
      vertex 12 0 0
    endloop
  endfacet
  facet normal 0 0 -1
    outer loop
      vertex 0 0 0
      vertex 0 12 0
      vertex 12 12 0
    endloop
  endfacet
  facet normal 0 0 1
    outer loop
      vertex 0 0 10
      vertex 12 0 10
      vertex 12 12 10
    endloop
  endfacet
  facet normal 0 0 1
    outer loop
      vertex 0 0 10
      vertex 12 12 10
      vertex 0 12 10
    endloop
  endfacet
  facet normal 0 -1 0
    outer loop
      vertex 0 0 0
      vertex 12 0 0
      vertex 12 0 10
    endloop
  endfacet
  facet normal 0 -1 0
    outer loop
      vertex 0 0 0
      vertex 12 0 10
      vertex 0 0 10
    endloop
  endfacet
  facet normal 0 1 0
    outer loop
      vertex 0 12 0
      vertex 0 12 10
      vertex 12 12 10
    endloop
  endfacet
  facet normal 0 1 0
    outer loop
      vertex 0 12 0
      vertex 12 12 10
      vertex 12 12 0
    endloop
  endfacet
  facet normal -1 0 0
    outer loop
      vertex 0 0 0
      vertex 0 0 10
      vertex 0 12 10
    endloop
  endfacet
  facet normal -1 0 0
    outer loop
      vertex 0 0 0
      vertex 0 12 10
      vertex 0 12 0
    endloop
  endfacet
  facet normal 1 0 0
    outer loop
      vertex 12 0 0
      vertex 12 12 10
      vertex 12 0 10
    endloop
  endfacet
  facet normal 1 0 0
    outer loop
      vertex 12 0 0
      vertex 12 12 0
      vertex 12 12 10
    endloop
  endfacet
  facet normal 0 0 -1
    outer loop
      vertex 0 18 0
      vertex 12 30 0
      vertex 12 18 0
    endloop
  endfacet
  facet normal 0 0 -1
    outer loop
      vertex 0 18 0
      vertex 0 30 0
      vertex 12 30 0
    endloop
  endfacet
  facet normal 0 0 1
    outer loop
      vertex 0 18 10
      vertex 12 18 10
      vertex 12 30 10
    endloop
  endfacet
  facet normal 0 0 1
    outer loop
      vertex 0 18 10
      vertex 12 30 10
      vertex 0 30 10
    endloop
  endfacet
  facet normal 0 -1 0
    outer loop
      vertex 0 18 0
      vertex 12 18 0
      vertex 12 18 10
    endloop
  endfacet
  facet normal 0 -1 0
    outer loop
      vertex 0 18 0
      vertex 12 18 10
      vertex 0 18 10
    endloop
  endfacet
  facet normal 0 1 0
    outer loop
      vertex 0 30 0
      vertex 0 30 10
      vertex 12 30 10
    endloop
  endfacet
  facet normal 0 1 0
    outer loop
      vertex 0 30 0
      vertex 12 30 10
      vertex 12 30 0
    endloop
  endfacet
  facet normal -1 0 0
    outer loop
      vertex 0 18 0
      vertex 0 18 10
      vertex 0 30 10
    endloop
  endfacet
  facet normal -1 0 0
    outer loop
      vertex 0 18 0
      vertex 0 30 10
      vertex 0 30 0
    endloop
  endfacet
  facet normal 1 0 0
    outer loop
      vertex 12 18 0
      vertex 12 30 10
      vertex 12 18 10
    endloop
  endfacet
  facet normal 1 0 0
    outer loop
      vertex 12 18 0
      vertex 12 30 0
      vertex 12 30 10
    endloop
  endfacet
  facet normal 0 0 -1
    outer loop
      vertex 0 36 0
      vertex 12 48 0
      vertex 12 36 0
    endloop
  endfacet
  facet normal 0 0 -1
    outer loop
      vertex 0 36 0
      vertex 0 48 0
      vertex 12 48 0
    endloop
  endfacet
  facet normal 0 0 1
    outer loop
      vertex 0 36 10
      vertex 12 36 10
      vertex 12 48 10
    endloop
  endfacet
  facet normal 0 0 1
    outer loop
      vertex 0 36 10
      vertex 12 48 10
      vertex 0 48 10
    endloop
  endfacet
  facet normal 0 -1 0
    outer loop
      vertex 0 36 0
      vertex 12 36 0
      vertex 12 36 10
    endloop
  endfacet
  facet normal 0 -1 0
    outer loop
      vertex 0 36 0
      vertex 12 36 10
      vertex 0 36 10
    endloop
  endfacet
  facet normal 0 1 0
    outer loop
      vertex 0 48 0
      vertex 0 48 10
      vertex 12 48 10
    endloop
  endfacet
  facet normal 0 1 0
    outer loop
      vertex 0 48 0
      vertex 12 48 10
      vertex 12 48 0
    endloop
  endfacet
  facet normal -1 0 0
    outer loop
      vertex 0 36 0
      vertex 0 36 10
      vertex 0 48 10
    endloop
  endfacet
  facet normal -1 0 0
    outer loop
      vertex 0 36 0
      vertex 0 48 10
      vertex 0 48 0
    endloop
  endfacet
  facet normal 1 0 0
    outer loop
      vertex 12 36 0
      vertex 12 48 10
      vertex 12 36 10
    endloop
  endfacet
  facet normal 1 0 0
    outer loop
      vertex 12 36 0
      vertex 12 48 0
      vertex 12 48 10
    endloop
  endfacet
  facet normal 0 0 -1
    outer loop
      vertex 18 0 0
      vertex 30 12 0
      vertex 30 0 0
    endloop
  endfacet
  facet normal 0 0 -1
    outer loop
      vertex 18 0 0
      vertex 18 12 0
      vertex 30 12 0
    endloop
  endfacet
  facet normal 0 0 1
    outer loop
      vertex 18 0 10
      vertex 30 0 10
      vertex 30 12 10
    endloop
  endfacet
  facet normal 0 0 1
    outer loop
      vertex 18 0 10
      vertex 30 12 10
      vertex 18 12 10
    endloop
  endfacet
  facet normal 0 -1 0
    outer loop
      vertex 18 0 0
      vertex 30 0 0
      vertex 30 0 10
    endloop
  endfacet
  facet normal 0 -1 0
    outer loop
      vertex 18 0 0
      vertex 30 0 10
      vertex 18 0 10
    endloop
  endfacet
  facet normal 0 1 0
    outer loop
      vertex 18 12 0
      vertex 18 12 10
      vertex 30 12 10
    endloop
  endfacet
  facet normal 0 1 0
    outer loop
      vertex 18 12 0
      vertex 30 12 10
      vertex 30 12 0
    endloop
  endfacet
  facet normal -1 0 0
    outer loop
      vertex 18 0 0
      vertex 18 0 10
      vertex 18 12 10
    endloop
  endfacet
  facet normal -1 0 0
    outer loop
      vertex 18 0 0
      vertex 18 12 10
      vertex 18 12 0
    endloop
  endfacet
  facet normal 1 0 0
    outer loop
      vertex 30 0 0
      vertex 30 12 10
      vertex 30 0 10
    endloop
  endfacet
  facet normal 1 0 0
    outer loop
      vertex 30 0 0
      vertex 30 12 0
      vertex 30 12 10
    endloop
  endfacet
  facet normal 0 0 -1
    outer loop
      vertex 18 18 0
      vertex 30 30 0
      vertex 30 18 0
    endloop
  endfacet
  facet normal 0 0 -1
    outer loop
      vertex 18 18 0
      vertex 18 30 0
      vertex 30 30 0
    endloop
  endfacet
  facet normal 0 0 1
    outer loop
      vertex 18 18 10
      vertex 30 18 10
      vertex 30 30 10
    endloop
  endfacet
  facet normal 0 0 1
    outer loop
      vertex 18 18 10
      vertex 30 30 10
      vertex 18 30 10
    endloop
  endfacet
  facet normal 0 -1 0
    outer loop
      vertex 18 18 0
      vertex 30 18 0
      vertex 30 18 10
    endloop
  endfacet
  facet normal 0 -1 0
    outer loop
      vertex 18 18 0
      vertex 30 18 10
      vertex 18 18 10
    endloop
  endfacet
  facet normal 0 1 0
    outer loop
      vertex 18 30 0
      vertex 18 30 10
      vertex 30 30 10
    endloop
  endfacet
  facet normal 0 1 0
    outer loop
      vertex 18 30 0
      vertex 30 30 10
      vertex 30 30 0
    endloop
  endfacet
  facet normal -1 0 0
    outer loop
      vertex 18 18 0
      vertex 18 18 10
      vertex 18 30 10
    endloop
  endfacet
  facet normal -1 0 0
    outer loop
      vertex 18 18 0
      vertex 18 30 10
      vertex 18 30 0
    endloop
  endfacet
  facet normal 1 0 0
    outer loop
      vertex 30 18 0
      vertex 30 30 10
      vertex 30 18 10
    endloop
  endfacet
  facet normal 1 0 0
    outer loop
      vertex 30 18 0
      vertex 30 30 0
      vertex 30 30 10
    endloop
  endfacet
  facet normal 0 0 -1
    outer loop
      vertex 18 36 0
      vertex 30 48 0
      vertex 30 36 0
    endloop
  endfacet
  facet normal 0 0 -1
    outer loop
      vertex 18 36 0
      vertex 18 48 0
      vertex 30 48 0
    endloop
  endfacet
  facet normal 0 0 1
    outer loop
      vertex 18 36 10
      vertex 30 36 10
      vertex 30 48 10
    endloop
  endfacet
  facet normal 0 0 1
    outer loop
      vertex 18 36 10
      vertex 30 48 10
      vertex 18 48 10
    endloop
  endfacet
  facet normal 0 -1 0
    outer loop
      vertex 18 36 0
      vertex 30 36 0
      vertex 30 36 10
    endloop
  endfacet
  facet normal 0 -1 0
    outer loop
      vertex 18 36 0
      vertex 30 36 10
      vertex 18 36 10
    endloop
  endfacet
  facet normal 0 1 0
    outer loop
      vertex 18 48 0
      vertex 18 48 10
      vertex 30 48 10
    endloop
  endfacet
  facet normal 0 1 0
    outer loop
      vertex 18 48 0
      vertex 30 48 10
      vertex 30 48 0
    endloop
  endfacet
  facet normal -1 0 0
    outer loop
      vertex 18 36 0
      vertex 18 36 10
      vertex 18 48 10
    endloop
  endfacet
  facet normal -1 0 0
    outer loop
      vertex 18 36 0
      vertex 18 48 10
      vertex 18 48 0
    endloop
  endfacet
  facet normal 1 0 0
    outer loop
      vertex 30 36 0
      vertex 30 48 10
      vertex 30 36 10
    endloop
  endfacet
  facet normal 1 0 0
    outer loop
      vertex 30 36 0
      vertex 30 48 0
      vertex 30 48 10
    endloop
  endfacet
  facet normal 0 0 -1
    outer loop
      vertex 36 0 0
      vertex 48 12 0
      vertex 48 0 0
    endloop
  endfacet
  facet normal 0 0 -1
    outer loop
      vertex 36 0 0
      vertex 36 12 0
      vertex 48 12 0
    endloop
  endfacet
  facet normal 0 0 1
    outer loop
      vertex 36 0 10
      vertex 48 0 10
      vertex 48 12 10
    endloop
  endfacet
  facet normal 0 0 1
    outer loop
      vertex 36 0 10
      vertex 48 12 10
      vertex 36 12 10
    endloop
  endfacet
  facet normal 0 -1 0
    outer loop
      vertex 36 0 0
      vertex 48 0 0
      vertex 48 0 10
    endloop
  endfacet
  facet normal 0 -1 0
    outer loop
      vertex 36 0 0
      vertex 48 0 10
      vertex 36 0 10
    endloop
  endfacet
  facet normal 0 1 0
    outer loop
      vertex 36 12 0
      vertex 36 12 10
      vertex 48 12 10
    endloop
  endfacet
  facet normal 0 1 0
    outer loop
      vertex 36 12 0
      vertex 48 12 10
      vertex 48 12 0
    endloop
  endfacet
  facet normal -1 0 0
    outer loop
      vertex 36 0 0
      vertex 36 0 10
      vertex 36 12 10
    endloop
  endfacet
  facet normal -1 0 0
    outer loop
      vertex 36 0 0
      vertex 36 12 10
      vertex 36 12 0
    endloop
  endfacet
  facet normal 1 0 0
    outer loop
      vertex 48 0 0
      vertex 48 12 10
      vertex 48 0 10
    endloop
  endfacet
  facet normal 1 0 0
    outer loop
      vertex 48 0 0
      vertex 48 12 0
      vertex 48 12 10
    endloop
  endfacet
  facet normal 0 0 -1
    outer loop
      vertex 36 18 0
      vertex 48 30 0
      vertex 48 18 0
    endloop
  endfacet
  facet normal 0 0 -1
    outer loop
      vertex 36 18 0
      vertex 36 30 0
      vertex 48 30 0
    endloop
  endfacet
  facet normal 0 0 1
    outer loop
      vertex 36 18 10
      vertex 48 18 10
      vertex 48 30 10
    endloop
  endfacet
  facet normal 0 0 1
    outer loop
      vertex 36 18 10
      vertex 48 30 10
      vertex 36 30 10
    endloop
  endfacet
  facet normal 0 -1 0
    outer loop
      vertex 36 18 0
      vertex 48 18 0
      vertex 48 18 10
    endloop
  endfacet
  facet normal 0 -1 0
    outer loop
      vertex 36 18 0
      vertex 48 18 10
      vertex 36 18 10
    endloop
  endfacet
  facet normal 0 1 0
    outer loop
      vertex 36 30 0
      vertex 36 30 10
      vertex 48 30 10
    endloop
  endfacet
  facet normal 0 1 0
    outer loop
      vertex 36 30 0
      vertex 48 30 10
      vertex 48 30 0
    endloop
  endfacet
  facet normal -1 0 0
    outer loop
      vertex 36 18 0
      vertex 36 18 10
      vertex 36 30 10
    endloop
  endfacet
  facet normal -1 0 0
    outer loop
      vertex 36 18 0
      vertex 36 30 10
      vertex 36 30 0
    endloop
  endfacet
  facet normal 1 0 0
    outer loop
      vertex 48 18 0
      vertex 48 30 10
      vertex 48 18 10
    endloop
  endfacet
  facet normal 1 0 0
    outer loop
      vertex 48 18 0
      vertex 48 30 0
      vertex 48 30 10
    endloop
  endfacet
  facet normal 0 0 -1
    outer loop
      vertex 36 36 0
      vertex 48 48 0
      vertex 48 36 0
    endloop
  endfacet
  facet normal 0 0 -1
    outer loop
      vertex 36 36 0
      vertex 36 48 0
      vertex 48 48 0
    endloop
  endfacet
  facet normal 0 0 1
    outer loop
      vertex 36 36 10
      vertex 48 36 10
      vertex 48 48 10
    endloop
  endfacet
  facet normal 0 0 1
    outer loop
      vertex 36 36 10
      vertex 48 48 10
      vertex 36 48 10
    endloop
  endfacet
  facet normal 0 -1 0
    outer loop
      vertex 36 36 0
      vertex 48 36 0
      vertex 48 36 10
    endloop
  endfacet
  facet normal 0 -1 0
    outer loop
      vertex 36 36 0
      vertex 48 36 10
      vertex 36 36 10
    endloop
  endfacet
  facet normal 0 1 0
    outer loop
      vertex 36 48 0
      vertex 36 48 10
      vertex 48 48 10
    endloop
  endfacet
  facet normal 0 1 0
    outer loop
      vertex 36 48 0
      vertex 48 48 10
      vertex 48 48 0
    endloop
  endfacet
  facet normal -1 0 0
    outer loop
      vertex 36 36 0
      vertex 36 36 10
      vertex 36 48 10
    endloop
  endfacet
  facet normal -1 0 0
    outer loop
      vertex 36 36 0
      vertex 36 48 10
      vertex 36 48 0
    endloop
  endfacet
  facet normal 1 0 0
    outer loop
      vertex 48 36 0
      vertex 48 48 10
      vertex 48 36 10
    endloop
  endfacet
  facet normal 1 0 0
    outer loop
      vertex 48 36 0
      vertex 48 48 0
      vertex 48 48 10
    endloop
  endfacet
endsolid stage2_small_perimeter_array_fixture
